<mxfile host="app.diagrams.net" agent="Mozilla/5.0 (Windows NT 10.0; Win64; x64) AppleWebKit/537.36 (KHTML, like Gecko) Chrome/127.0.0.0 Safari/537.36" version="24.7.6">
  <diagram name="Page-1" id="-z4FBa4y1muNTdy9gSmg">
    <mxGraphModel dx="2350" dy="796" grid="1" gridSize="10" guides="1" tooltips="1" connect="1" arrows="1" fold="1" page="1" pageScale="1" pageWidth="850" pageHeight="1100" math="0" shadow="0">
      <root>
        <mxCell id="0" />
        <mxCell id="1" parent="0" />
        <mxCell id="r2_GUlwitlH08SyPvIVj-1" value="Login" style="whiteSpace=wrap;html=1;align=center;" parent="1" vertex="1">
          <mxGeometry x="350" y="160" width="100" height="40" as="geometry" />
        </mxCell>
        <mxCell id="r2_GUlwitlH08SyPvIVj-2" value="User" style="whiteSpace=wrap;html=1;align=center;" parent="1" vertex="1">
          <mxGeometry x="110" y="250" width="100" height="40" as="geometry" />
        </mxCell>
        <mxCell id="r2_GUlwitlH08SyPvIVj-3" value="Roles" style="whiteSpace=wrap;html=1;align=center;" parent="1" vertex="1">
          <mxGeometry x="590" y="250" width="100" height="40" as="geometry" />
        </mxCell>
        <mxCell id="r2_GUlwitlH08SyPvIVj-4" value="Permission" style="whiteSpace=wrap;html=1;align=center;" parent="1" vertex="1">
          <mxGeometry x="560" y="360" width="100" height="40" as="geometry" />
        </mxCell>
        <mxCell id="r2_GUlwitlH08SyPvIVj-5" value="Student" style="whiteSpace=wrap;html=1;align=center;" parent="1" vertex="1">
          <mxGeometry x="-70" y="520" width="100" height="40" as="geometry" />
        </mxCell>
        <mxCell id="r2_GUlwitlH08SyPvIVj-6" value="Registration" style="whiteSpace=wrap;html=1;align=center;" parent="1" vertex="1">
          <mxGeometry x="230" y="600" width="100" height="40" as="geometry" />
        </mxCell>
        <mxCell id="r2_GUlwitlH08SyPvIVj-7" value="Course" style="whiteSpace=wrap;html=1;align=center;" parent="1" vertex="1">
          <mxGeometry x="525" y="640" width="100" height="40" as="geometry" />
        </mxCell>
        <mxCell id="r2_GUlwitlH08SyPvIVj-8" value="Fees" style="whiteSpace=wrap;html=1;align=center;" parent="1" vertex="1">
          <mxGeometry x="70" y="760" width="100" height="40" as="geometry" />
        </mxCell>
        <mxCell id="r2_GUlwitlH08SyPvIVj-10" value="login_password" style="ellipse;whiteSpace=wrap;html=1;align=center;" parent="1" vertex="1">
          <mxGeometry x="425" y="60" width="100" height="40" as="geometry" />
        </mxCell>
        <mxCell id="r2_GUlwitlH08SyPvIVj-11" value="login_role_id (fk)" style="ellipse;whiteSpace=wrap;html=1;align=center;" parent="1" vertex="1">
          <mxGeometry x="530" y="30" width="100" height="40" as="geometry" />
        </mxCell>
        <mxCell id="r2_GUlwitlH08SyPvIVj-13" value="login_username" style="ellipse;whiteSpace=wrap;html=1;align=center;" parent="1" vertex="1">
          <mxGeometry x="325" y="30" width="100" height="40" as="geometry" />
        </mxCell>
        <mxCell id="r2_GUlwitlH08SyPvIVj-15" value="user_name" style="ellipse;whiteSpace=wrap;html=1;align=center;" parent="1" vertex="1">
          <mxGeometry x="-30" y="90" width="100" height="40" as="geometry" />
        </mxCell>
        <mxCell id="r2_GUlwitlH08SyPvIVj-16" value="user_address" style="ellipse;whiteSpace=wrap;html=1;align=center;" parent="1" vertex="1">
          <mxGeometry x="-120" y="140" width="100" height="40" as="geometry" />
        </mxCell>
        <mxCell id="r2_GUlwitlH08SyPvIVj-17" value="user_mobile" style="ellipse;whiteSpace=wrap;html=1;align=center;" parent="1" vertex="1">
          <mxGeometry x="-160" y="200" width="100" height="40" as="geometry" />
        </mxCell>
        <mxCell id="r2_GUlwitlH08SyPvIVj-19" value="role_name" style="ellipse;whiteSpace=wrap;html=1;align=center;" parent="1" vertex="1">
          <mxGeometry x="700" y="120" width="100" height="40" as="geometry" />
        </mxCell>
        <mxCell id="r2_GUlwitlH08SyPvIVj-21" value="Has" style="shape=rhombus;perimeter=rhombusPerimeter;whiteSpace=wrap;html=1;align=center;" parent="1" vertex="1">
          <mxGeometry x="340" y="240" width="120" height="60" as="geometry" />
        </mxCell>
        <mxCell id="r2_GUlwitlH08SyPvIVj-22" value="" style="endArrow=none;html=1;rounded=0;" parent="1" edge="1">
          <mxGeometry relative="1" as="geometry">
            <mxPoint x="210" y="270" as="sourcePoint" />
            <mxPoint x="340" y="270" as="targetPoint" />
          </mxGeometry>
        </mxCell>
        <mxCell id="r2_GUlwitlH08SyPvIVj-23" value="" style="endArrow=none;html=1;rounded=0;" parent="1" edge="1">
          <mxGeometry relative="1" as="geometry">
            <mxPoint x="460" y="269.5" as="sourcePoint" />
            <mxPoint x="590" y="269.5" as="targetPoint" />
          </mxGeometry>
        </mxCell>
        <mxCell id="r2_GUlwitlH08SyPvIVj-24" value="" style="endArrow=none;html=1;rounded=0;exitX=0.5;exitY=1;exitDx=0;exitDy=0;" parent="1" source="r2_GUlwitlH08SyPvIVj-1" edge="1">
          <mxGeometry relative="1" as="geometry">
            <mxPoint x="400" y="210" as="sourcePoint" />
            <mxPoint x="400" y="240" as="targetPoint" />
          </mxGeometry>
        </mxCell>
        <mxCell id="r2_GUlwitlH08SyPvIVj-30" value="" style="endArrow=none;html=1;rounded=0;entryX=0;entryY=0.5;entryDx=0;entryDy=0;" parent="1" target="r2_GUlwitlH08SyPvIVj-2" edge="1">
          <mxGeometry relative="1" as="geometry">
            <mxPoint x="-60" y="220" as="sourcePoint" />
            <mxPoint x="110" y="240" as="targetPoint" />
          </mxGeometry>
        </mxCell>
        <mxCell id="r2_GUlwitlH08SyPvIVj-31" value="" style="endArrow=none;html=1;rounded=0;entryX=0;entryY=0.25;entryDx=0;entryDy=0;exitX=1;exitY=1;exitDx=0;exitDy=0;" parent="1" source="r2_GUlwitlH08SyPvIVj-16" target="r2_GUlwitlH08SyPvIVj-2" edge="1">
          <mxGeometry relative="1" as="geometry">
            <mxPoint x="-50" y="160" as="sourcePoint" />
            <mxPoint x="110" y="160" as="targetPoint" />
          </mxGeometry>
        </mxCell>
        <mxCell id="r2_GUlwitlH08SyPvIVj-32" value="" style="endArrow=none;html=1;rounded=0;" parent="1" target="r2_GUlwitlH08SyPvIVj-2" edge="1">
          <mxGeometry relative="1" as="geometry">
            <mxPoint x="10" y="129" as="sourcePoint" />
            <mxPoint x="170" y="129" as="targetPoint" />
          </mxGeometry>
        </mxCell>
        <mxCell id="r2_GUlwitlH08SyPvIVj-33" value="" style="endArrow=none;html=1;rounded=0;entryX=0.75;entryY=0;entryDx=0;entryDy=0;exitX=0.4;exitY=1;exitDx=0;exitDy=0;exitPerimeter=0;" parent="1" target="r2_GUlwitlH08SyPvIVj-2" edge="1">
          <mxGeometry relative="1" as="geometry">
            <mxPoint x="140" y="130" as="sourcePoint" />
            <mxPoint x="300" y="149.5" as="targetPoint" />
          </mxGeometry>
        </mxCell>
        <mxCell id="r2_GUlwitlH08SyPvIVj-34" value="" style="endArrow=none;html=1;rounded=0;entryX=0.164;entryY=0.005;entryDx=0;entryDy=0;entryPerimeter=0;exitX=0.5;exitY=1;exitDx=0;exitDy=0;" parent="1" target="r2_GUlwitlH08SyPvIVj-1" edge="1">
          <mxGeometry relative="1" as="geometry">
            <mxPoint x="290" y="100" as="sourcePoint" />
            <mxPoint x="440" y="120" as="targetPoint" />
          </mxGeometry>
        </mxCell>
        <mxCell id="r2_GUlwitlH08SyPvIVj-35" value="" style="endArrow=none;html=1;rounded=0;entryX=0.66;entryY=-0.035;entryDx=0;entryDy=0;entryPerimeter=0;exitX=0.5;exitY=1;exitDx=0;exitDy=0;" parent="1" source="r2_GUlwitlH08SyPvIVj-13" target="r2_GUlwitlH08SyPvIVj-1" edge="1">
          <mxGeometry relative="1" as="geometry">
            <mxPoint x="380" y="120" as="sourcePoint" />
            <mxPoint x="540" y="120" as="targetPoint" />
          </mxGeometry>
        </mxCell>
        <mxCell id="r2_GUlwitlH08SyPvIVj-36" value="" style="endArrow=none;html=1;rounded=0;entryX=0.9;entryY=0;entryDx=0;entryDy=0;entryPerimeter=0;" parent="1" source="r2_GUlwitlH08SyPvIVj-10" target="r2_GUlwitlH08SyPvIVj-1" edge="1">
          <mxGeometry relative="1" as="geometry">
            <mxPoint x="410" y="139.5" as="sourcePoint" />
            <mxPoint x="570" y="139.5" as="targetPoint" />
          </mxGeometry>
        </mxCell>
        <mxCell id="r2_GUlwitlH08SyPvIVj-37" value="" style="endArrow=none;html=1;rounded=0;entryX=0.5;entryY=1;entryDx=0;entryDy=0;" parent="1" target="r2_GUlwitlH08SyPvIVj-11" edge="1">
          <mxGeometry relative="1" as="geometry">
            <mxPoint x="450" y="159" as="sourcePoint" />
            <mxPoint x="610" y="159" as="targetPoint" />
          </mxGeometry>
        </mxCell>
        <mxCell id="r2_GUlwitlH08SyPvIVj-39" value="" style="endArrow=none;html=1;rounded=0;entryX=0.336;entryY=0.985;entryDx=0;entryDy=0;entryPerimeter=0;exitX=0.5;exitY=0;exitDx=0;exitDy=0;" parent="1" source="r2_GUlwitlH08SyPvIVj-3" target="r2_GUlwitlH08SyPvIVj-19" edge="1">
          <mxGeometry relative="1" as="geometry">
            <mxPoint x="560" y="210" as="sourcePoint" />
            <mxPoint x="720" y="210" as="targetPoint" />
          </mxGeometry>
        </mxCell>
        <mxCell id="r2_GUlwitlH08SyPvIVj-41" value="" style="endArrow=none;html=1;rounded=0;entryX=0.256;entryY=0.965;entryDx=0;entryDy=0;entryPerimeter=0;exitX=0.25;exitY=0;exitDx=0;exitDy=0;" parent="1" source="r2_GUlwitlH08SyPvIVj-102" edge="1">
          <mxGeometry relative="1" as="geometry">
            <mxPoint x="590" y="240" as="sourcePoint" />
            <mxPoint x="605.5999999999999" y="158.60000000000002" as="targetPoint" />
          </mxGeometry>
        </mxCell>
        <mxCell id="r2_GUlwitlH08SyPvIVj-42" value="" style="endArrow=none;html=1;rounded=0;exitX=0.5;exitY=1;exitDx=0;exitDy=0;entryX=0;entryY=0.75;entryDx=0;entryDy=0;" parent="1" source="r2_GUlwitlH08SyPvIVj-21" target="r2_GUlwitlH08SyPvIVj-4" edge="1">
          <mxGeometry relative="1" as="geometry">
            <mxPoint x="340" y="320" as="sourcePoint" />
            <mxPoint x="500" y="320" as="targetPoint" />
            <Array as="points">
              <mxPoint x="400" y="390" />
            </Array>
          </mxGeometry>
        </mxCell>
        <mxCell id="r2_GUlwitlH08SyPvIVj-44" value="per_role_id (fk)" style="ellipse;whiteSpace=wrap;html=1;align=center;" parent="1" vertex="1">
          <mxGeometry x="710" y="430" width="100" height="40" as="geometry" />
        </mxCell>
        <mxCell id="r2_GUlwitlH08SyPvIVj-48" value="" style="endArrow=none;html=1;rounded=0;entryX=0;entryY=0.5;entryDx=0;entryDy=0;exitX=0.848;exitY=-0.015;exitDx=0;exitDy=0;exitPerimeter=0;" parent="1" source="r2_GUlwitlH08SyPvIVj-4" edge="1">
          <mxGeometry relative="1" as="geometry">
            <mxPoint x="630" y="360" as="sourcePoint" />
            <mxPoint x="740" y="330" as="targetPoint" />
          </mxGeometry>
        </mxCell>
        <mxCell id="r2_GUlwitlH08SyPvIVj-49" value="" style="endArrow=none;html=1;rounded=0;entryX=0.5;entryY=0;entryDx=0;entryDy=0;exitX=1;exitY=1;exitDx=0;exitDy=0;" parent="1" source="r2_GUlwitlH08SyPvIVj-4" target="r2_GUlwitlH08SyPvIVj-44" edge="1">
          <mxGeometry relative="1" as="geometry">
            <mxPoint x="600" y="410" as="sourcePoint" />
            <mxPoint x="760" y="410" as="targetPoint" />
          </mxGeometry>
        </mxCell>
        <mxCell id="r2_GUlwitlH08SyPvIVj-51" value="" style="endArrow=none;html=1;rounded=0;exitX=0.412;exitY=0.955;exitDx=0;exitDy=0;exitPerimeter=0;entryX=0.5;entryY=0;entryDx=0;entryDy=0;edgeStyle=orthogonalEdgeStyle;" parent="1" source="r2_GUlwitlH08SyPvIVj-2" edge="1" target="r2_GUlwitlH08SyPvIVj-52">
          <mxGeometry relative="1" as="geometry">
            <mxPoint x="130" y="379.5" as="sourcePoint" />
            <mxPoint x="230" y="480" as="targetPoint" />
            <Array as="points">
              <mxPoint x="151" y="350" />
              <mxPoint x="290" y="350" />
            </Array>
          </mxGeometry>
        </mxCell>
        <mxCell id="r2_GUlwitlH08SyPvIVj-52" value="Manage" style="shape=rhombus;perimeter=rhombusPerimeter;whiteSpace=wrap;html=1;align=center;" parent="1" vertex="1">
          <mxGeometry x="230" y="450" width="120" height="60" as="geometry" />
        </mxCell>
        <mxCell id="r2_GUlwitlH08SyPvIVj-53" value="" style="endArrow=none;html=1;rounded=0;exitX=0.588;exitY=0.005;exitDx=0;exitDy=0;entryX=0.5;entryY=1;entryDx=0;entryDy=0;exitPerimeter=0;" parent="1" source="r2_GUlwitlH08SyPvIVj-6" target="r2_GUlwitlH08SyPvIVj-52" edge="1">
          <mxGeometry relative="1" as="geometry">
            <mxPoint x="330" y="430" as="sourcePoint" />
            <mxPoint x="490" y="430" as="targetPoint" />
          </mxGeometry>
        </mxCell>
        <mxCell id="r2_GUlwitlH08SyPvIVj-54" value="" style="endArrow=none;html=1;rounded=0;exitX=1;exitY=0.5;exitDx=0;exitDy=0;" parent="1" source="r2_GUlwitlH08SyPvIVj-5" edge="1">
          <mxGeometry relative="1" as="geometry">
            <mxPoint x="90" y="560" as="sourcePoint" />
            <mxPoint x="230" y="480" as="targetPoint" />
            <Array as="points">
              <mxPoint x="90" y="540" />
              <mxPoint x="90" y="480" />
            </Array>
          </mxGeometry>
        </mxCell>
        <mxCell id="r2_GUlwitlH08SyPvIVj-55" value="" style="endArrow=none;html=1;rounded=0;exitX=1;exitY=0.5;exitDx=0;exitDy=0;entryX=0.25;entryY=0;entryDx=0;entryDy=0;" parent="1" source="r2_GUlwitlH08SyPvIVj-52" target="r2_GUlwitlH08SyPvIVj-7" edge="1">
          <mxGeometry relative="1" as="geometry">
            <mxPoint x="330" y="430" as="sourcePoint" />
            <mxPoint x="550" y="480" as="targetPoint" />
            <Array as="points">
              <mxPoint x="550" y="480" />
            </Array>
          </mxGeometry>
        </mxCell>
        <mxCell id="r2_GUlwitlH08SyPvIVj-56" value="" style="endArrow=none;html=1;rounded=0;entryX=0;entryY=0.5;entryDx=0;entryDy=0;exitX=0.5;exitY=0;exitDx=0;exitDy=0;" parent="1" source="r2_GUlwitlH08SyPvIVj-8" target="r2_GUlwitlH08SyPvIVj-6" edge="1">
          <mxGeometry relative="1" as="geometry">
            <mxPoint x="124" y="730" as="sourcePoint" />
            <mxPoint x="490" y="570" as="targetPoint" />
            <Array as="points">
              <mxPoint x="120" y="650" />
              <mxPoint x="120" y="620" />
            </Array>
          </mxGeometry>
        </mxCell>
        <mxCell id="r2_GUlwitlH08SyPvIVj-57" value="Has" style="shape=rhombus;perimeter=rhombusPerimeter;whiteSpace=wrap;html=1;align=center;" parent="1" vertex="1">
          <mxGeometry x="60" y="650" width="120" height="60" as="geometry" />
        </mxCell>
        <mxCell id="r2_GUlwitlH08SyPvIVj-59" value="fees_type" style="ellipse;whiteSpace=wrap;html=1;align=center;" parent="1" vertex="1">
          <mxGeometry y="850" width="100" height="40" as="geometry" />
        </mxCell>
        <mxCell id="r2_GUlwitlH08SyPvIVj-62" value="course_type" style="ellipse;whiteSpace=wrap;html=1;align=center;" parent="1" vertex="1">
          <mxGeometry x="660" y="725" width="100" height="40" as="geometry" />
        </mxCell>
        <mxCell id="r2_GUlwitlH08SyPvIVj-63" value="course_stu_id(fk)" style="ellipse;whiteSpace=wrap;html=1;align=center;" parent="1" vertex="1">
          <mxGeometry x="590" y="770" width="100" height="40" as="geometry" />
        </mxCell>
        <mxCell id="r2_GUlwitlH08SyPvIVj-66" value="reg_stu_id (fk)" style="ellipse;whiteSpace=wrap;html=1;align=center;" parent="1" vertex="1">
          <mxGeometry x="240" y="690" width="100" height="40" as="geometry" />
        </mxCell>
        <mxCell id="r2_GUlwitlH08SyPvIVj-67" value="course_name" style="ellipse;whiteSpace=wrap;html=1;align=center;" parent="1" vertex="1">
          <mxGeometry x="740" y="680" width="100" height="40" as="geometry" />
        </mxCell>
        <mxCell id="r2_GUlwitlH08SyPvIVj-68" value="reg_date" style="ellipse;whiteSpace=wrap;html=1;align=center;" parent="1" vertex="1">
          <mxGeometry x="400" y="570" width="100" height="40" as="geometry" />
        </mxCell>
        <mxCell id="r2_GUlwitlH08SyPvIVj-69" value="reg_type" style="ellipse;whiteSpace=wrap;html=1;align=center;" parent="1" vertex="1">
          <mxGeometry x="360" y="660" width="100" height="40" as="geometry" />
        </mxCell>
        <mxCell id="r2_GUlwitlH08SyPvIVj-75" value="s_name" style="ellipse;whiteSpace=wrap;html=1;align=center;" parent="1" vertex="1">
          <mxGeometry x="-210" y="450" width="100" height="40" as="geometry" />
        </mxCell>
        <mxCell id="r2_GUlwitlH08SyPvIVj-78" value="s_address" style="ellipse;whiteSpace=wrap;html=1;align=center;" parent="1" vertex="1">
          <mxGeometry x="-230" y="590" width="100" height="40" as="geometry" />
        </mxCell>
        <mxCell id="r2_GUlwitlH08SyPvIVj-79" value="s_email" style="ellipse;whiteSpace=wrap;html=1;align=center;" parent="1" vertex="1">
          <mxGeometry x="-230" y="530" width="100" height="40" as="geometry" />
        </mxCell>
        <mxCell id="r2_GUlwitlH08SyPvIVj-80" value="" style="endArrow=none;html=1;rounded=0;entryX=0.676;entryY=1.005;entryDx=0;entryDy=0;entryPerimeter=0;exitX=0.75;exitY=0;exitDx=0;exitDy=0;" parent="1" source="r2_GUlwitlH08SyPvIVj-6" edge="1">
          <mxGeometry relative="1" as="geometry">
            <mxPoint x="320" y="570" as="sourcePoint" />
            <mxPoint x="377.5999999999999" y="560.2" as="targetPoint" />
          </mxGeometry>
        </mxCell>
        <mxCell id="r2_GUlwitlH08SyPvIVj-81" value="" style="endArrow=none;html=1;rounded=0;entryX=0.72;entryY=0.945;entryDx=0;entryDy=0;entryPerimeter=0;exitX=0.75;exitY=0;exitDx=0;exitDy=0;" parent="1" source="r2_GUlwitlH08SyPvIVj-5" edge="1">
          <mxGeometry relative="1" as="geometry">
            <mxPoint x="20" y="600" as="sourcePoint" />
            <mxPoint x="-8" y="457.79999999999995" as="targetPoint" />
          </mxGeometry>
        </mxCell>
        <mxCell id="r2_GUlwitlH08SyPvIVj-82" value="" style="endArrow=none;html=1;rounded=0;entryX=1;entryY=0;entryDx=0;entryDy=0;" parent="1" source="r2_GUlwitlH08SyPvIVj-5" target="r2_GUlwitlH08SyPvIVj-78" edge="1">
          <mxGeometry relative="1" as="geometry">
            <mxPoint x="320" y="570" as="sourcePoint" />
            <mxPoint x="290" y="540" as="targetPoint" />
          </mxGeometry>
        </mxCell>
        <mxCell id="r2_GUlwitlH08SyPvIVj-83" value="" style="endArrow=none;html=1;rounded=0;entryX=1;entryY=0;entryDx=0;entryDy=0;exitX=0.396;exitY=0.985;exitDx=0;exitDy=0;exitPerimeter=0;" parent="1" source="r2_GUlwitlH08SyPvIVj-5" edge="1">
          <mxGeometry relative="1" as="geometry">
            <mxPoint x="320" y="570" as="sourcePoint" />
            <mxPoint x="-84.64466094067257" y="655.8578643762689" as="targetPoint" />
          </mxGeometry>
        </mxCell>
        <mxCell id="r2_GUlwitlH08SyPvIVj-84" value="" style="endArrow=none;html=1;rounded=0;entryX=0.436;entryY=0.115;entryDx=0;entryDy=0;entryPerimeter=0;exitX=0.75;exitY=1;exitDx=0;exitDy=0;" parent="1" source="r2_GUlwitlH08SyPvIVj-5" edge="1">
          <mxGeometry relative="1" as="geometry">
            <mxPoint x="320" y="570" as="sourcePoint" />
            <mxPoint x="13.599999999999909" y="614.5999999999999" as="targetPoint" />
          </mxGeometry>
        </mxCell>
        <mxCell id="r2_GUlwitlH08SyPvIVj-86" value="" style="endArrow=none;html=1;rounded=0;entryX=0.5;entryY=0;entryDx=0;entryDy=0;exitX=0.25;exitY=1;exitDx=0;exitDy=0;" parent="1" source="r2_GUlwitlH08SyPvIVj-8" target="r2_GUlwitlH08SyPvIVj-59" edge="1">
          <mxGeometry relative="1" as="geometry">
            <mxPoint x="320" y="570" as="sourcePoint" />
            <mxPoint x="480" y="570" as="targetPoint" />
          </mxGeometry>
        </mxCell>
        <mxCell id="r2_GUlwitlH08SyPvIVj-87" value="" style="endArrow=none;html=1;rounded=0;exitX=0.876;exitY=0.985;exitDx=0;exitDy=0;exitPerimeter=0;entryX=0.5;entryY=0;entryDx=0;entryDy=0;" parent="1" source="r2_GUlwitlH08SyPvIVj-8" edge="1" target="r2_GUlwitlH08SyPvIVj-107">
          <mxGeometry relative="1" as="geometry">
            <mxPoint x="320" y="570" as="sourcePoint" />
            <mxPoint x="197.7827720326577" y="832.0828806714983" as="targetPoint" />
          </mxGeometry>
        </mxCell>
        <mxCell id="r2_GUlwitlH08SyPvIVj-89" value="" style="endArrow=none;html=1;rounded=0;exitX=1;exitY=0.5;exitDx=0;exitDy=0;" parent="1" source="r2_GUlwitlH08SyPvIVj-7" target="r2_GUlwitlH08SyPvIVj-67" edge="1">
          <mxGeometry relative="1" as="geometry">
            <mxPoint x="320" y="570" as="sourcePoint" />
            <mxPoint x="480" y="570" as="targetPoint" />
          </mxGeometry>
        </mxCell>
        <mxCell id="r2_GUlwitlH08SyPvIVj-90" value="" style="endArrow=none;html=1;rounded=0;entryX=0.228;entryY=0.085;entryDx=0;entryDy=0;entryPerimeter=0;" parent="1" target="r2_GUlwitlH08SyPvIVj-62" edge="1">
          <mxGeometry relative="1" as="geometry">
            <mxPoint x="620" y="680" as="sourcePoint" />
            <mxPoint x="480" y="570" as="targetPoint" />
          </mxGeometry>
        </mxCell>
        <mxCell id="r2_GUlwitlH08SyPvIVj-91" value="" style="endArrow=none;html=1;rounded=0;entryX=0.2;entryY=0;entryDx=0;entryDy=0;entryPerimeter=0;exitX=0.35;exitY=1;exitDx=0;exitDy=0;exitPerimeter=0;" parent="1" source="r2_GUlwitlH08SyPvIVj-7" target="r2_GUlwitlH08SyPvIVj-63" edge="1">
          <mxGeometry relative="1" as="geometry">
            <mxPoint x="525" y="710" as="sourcePoint" />
            <mxPoint x="685" y="710" as="targetPoint" />
          </mxGeometry>
        </mxCell>
        <mxCell id="r2_GUlwitlH08SyPvIVj-92" value="" style="endArrow=none;html=1;rounded=0;entryX=0.24;entryY=0.935;entryDx=0;entryDy=0;entryPerimeter=0;exitX=0.5;exitY=0;exitDx=0;exitDy=0;" parent="1" source="r2_GUlwitlH08SyPvIVj-7" edge="1">
          <mxGeometry relative="1" as="geometry">
            <mxPoint x="590" y="636" as="sourcePoint" />
            <mxPoint x="684" y="607.4000000000001" as="targetPoint" />
          </mxGeometry>
        </mxCell>
        <mxCell id="r2_GUlwitlH08SyPvIVj-93" value="" style="endArrow=none;html=1;rounded=0;entryX=0.5;entryY=0;entryDx=0;entryDy=0;exitX=0.436;exitY=0.965;exitDx=0;exitDy=0;exitPerimeter=0;" parent="1" source="r2_GUlwitlH08SyPvIVj-6" target="r2_GUlwitlH08SyPvIVj-66" edge="1">
          <mxGeometry relative="1" as="geometry">
            <mxPoint x="240" y="659.5" as="sourcePoint" />
            <mxPoint x="400" y="659.5" as="targetPoint" />
          </mxGeometry>
        </mxCell>
        <mxCell id="r2_GUlwitlH08SyPvIVj-95" value="" style="endArrow=none;html=1;rounded=0;entryX=0.3;entryY=0;entryDx=0;entryDy=0;entryPerimeter=0;" parent="1" target="r2_GUlwitlH08SyPvIVj-69" edge="1">
          <mxGeometry relative="1" as="geometry">
            <mxPoint x="330" y="630" as="sourcePoint" />
            <mxPoint x="470" y="630" as="targetPoint" />
          </mxGeometry>
        </mxCell>
        <mxCell id="r2_GUlwitlH08SyPvIVj-96" value="" style="endArrow=none;html=1;rounded=0;exitX=1;exitY=0;exitDx=0;exitDy=0;entryX=0;entryY=0.5;entryDx=0;entryDy=0;" parent="1" source="r2_GUlwitlH08SyPvIVj-6" target="r2_GUlwitlH08SyPvIVj-68" edge="1">
          <mxGeometry relative="1" as="geometry">
            <mxPoint x="220" y="550" as="sourcePoint" />
            <mxPoint x="380" y="550" as="targetPoint" />
          </mxGeometry>
        </mxCell>
        <mxCell id="r2_GUlwitlH08SyPvIVj-98" value="" style="endArrow=none;html=1;rounded=0;entryX=0.124;entryY=-0.055;entryDx=0;entryDy=0;entryPerimeter=0;exitX=1;exitY=1;exitDx=0;exitDy=0;" parent="1" source="r2_GUlwitlH08SyPvIVj-75" target="r2_GUlwitlH08SyPvIVj-5" edge="1">
          <mxGeometry relative="1" as="geometry">
            <mxPoint x="-140" y="479.5" as="sourcePoint" />
            <mxPoint x="20" y="479.5" as="targetPoint" />
          </mxGeometry>
        </mxCell>
        <mxCell id="r2_GUlwitlH08SyPvIVj-99" value="" style="endArrow=none;html=1;rounded=0;exitX=1;exitY=0.5;exitDx=0;exitDy=0;entryX=0;entryY=0.5;entryDx=0;entryDy=0;" parent="1" source="r2_GUlwitlH08SyPvIVj-79" target="r2_GUlwitlH08SyPvIVj-5" edge="1">
          <mxGeometry relative="1" as="geometry">
            <mxPoint x="320" y="650" as="sourcePoint" />
            <mxPoint x="-30" y="670" as="targetPoint" />
          </mxGeometry>
        </mxCell>
        <mxCell id="r2_GUlwitlH08SyPvIVj-100" value="login_id" style="ellipse;whiteSpace=wrap;html=1;align=center;fontStyle=4;" parent="1" vertex="1">
          <mxGeometry x="240" y="60" width="100" height="40" as="geometry" />
        </mxCell>
        <mxCell id="r2_GUlwitlH08SyPvIVj-101" value="user_id" style="ellipse;whiteSpace=wrap;html=1;align=center;fontStyle=4;" parent="1" vertex="1">
          <mxGeometry x="100" y="90" width="100" height="40" as="geometry" />
        </mxCell>
        <mxCell id="r2_GUlwitlH08SyPvIVj-103" value="" style="endArrow=none;html=1;rounded=0;entryX=0.256;entryY=0.965;entryDx=0;entryDy=0;entryPerimeter=0;exitX=0.25;exitY=0;exitDx=0;exitDy=0;" parent="1" source="r2_GUlwitlH08SyPvIVj-3" target="r2_GUlwitlH08SyPvIVj-102" edge="1">
          <mxGeometry relative="1" as="geometry">
            <mxPoint x="615" y="250" as="sourcePoint" />
            <mxPoint x="605.5999999999999" y="158.60000000000002" as="targetPoint" />
          </mxGeometry>
        </mxCell>
        <mxCell id="r2_GUlwitlH08SyPvIVj-102" value="role_id" style="ellipse;whiteSpace=wrap;html=1;align=center;fontStyle=4;" parent="1" vertex="1">
          <mxGeometry x="540" y="120" width="100" height="40" as="geometry" />
        </mxCell>
        <mxCell id="r2_GUlwitlH08SyPvIVj-104" value="per_id" style="ellipse;whiteSpace=wrap;html=1;align=center;fontStyle=4;" parent="1" vertex="1">
          <mxGeometry x="710" y="290" width="100" height="40" as="geometry" />
        </mxCell>
        <mxCell id="r2_GUlwitlH08SyPvIVj-105" value="course_id" style="ellipse;whiteSpace=wrap;html=1;align=center;fontStyle=4;" parent="1" vertex="1">
          <mxGeometry x="660" y="570" width="100" height="40" as="geometry" />
        </mxCell>
        <mxCell id="r2_GUlwitlH08SyPvIVj-106" value="reg_id" style="ellipse;whiteSpace=wrap;html=1;align=center;fontStyle=4;" parent="1" vertex="1">
          <mxGeometry x="320" y="520" width="100" height="40" as="geometry" />
        </mxCell>
        <mxCell id="r2_GUlwitlH08SyPvIVj-107" value="fees_id" style="ellipse;whiteSpace=wrap;html=1;align=center;fontStyle=4;" parent="1" vertex="1">
          <mxGeometry x="130" y="850" width="100" height="40" as="geometry" />
        </mxCell>
        <mxCell id="r2_GUlwitlH08SyPvIVj-108" value="s_id" style="ellipse;whiteSpace=wrap;html=1;align=center;fontStyle=4;" parent="1" vertex="1">
          <mxGeometry x="-50" y="420" width="100" height="40" as="geometry" />
        </mxCell>
        <mxCell id="r2_GUlwitlH08SyPvIVj-109" value="s_number" style="ellipse;shape=doubleEllipse;margin=3;whiteSpace=wrap;html=1;align=center;" parent="1" vertex="1">
          <mxGeometry x="-150" y="650" width="100" height="40" as="geometry" />
        </mxCell>
        <mxCell id="r2_GUlwitlH08SyPvIVj-110" value="age" style="ellipse;whiteSpace=wrap;html=1;align=center;dashed=1;" parent="1" vertex="1">
          <mxGeometry x="-40" y="610" width="100" height="40" as="geometry" />
        </mxCell>
        <mxCell id="0E739cw5OknVac1vhH8L-2" value="user_email" style="ellipse;whiteSpace=wrap;html=1;align=center;" vertex="1" parent="1">
          <mxGeometry x="-160" y="260" width="100" height="40" as="geometry" />
        </mxCell>
        <mxCell id="0E739cw5OknVac1vhH8L-4" value="" style="endArrow=none;html=1;rounded=0;entryX=0;entryY=0.75;entryDx=0;entryDy=0;" edge="1" parent="1" target="r2_GUlwitlH08SyPvIVj-2">
          <mxGeometry width="50" height="50" relative="1" as="geometry">
            <mxPoint x="-60" y="280" as="sourcePoint" />
            <mxPoint x="-10" y="230" as="targetPoint" />
          </mxGeometry>
        </mxCell>
        <mxCell id="0E739cw5OknVac1vhH8L-10" value="1" style="text;html=1;align=center;verticalAlign=middle;resizable=0;points=[];autosize=1;strokeColor=none;fillColor=none;" vertex="1" parent="1">
          <mxGeometry x="210" y="240" width="30" height="30" as="geometry" />
        </mxCell>
        <mxCell id="0E739cw5OknVac1vhH8L-11" value="M" style="text;html=1;align=center;verticalAlign=middle;resizable=0;points=[];autosize=1;strokeColor=none;fillColor=none;" vertex="1" parent="1">
          <mxGeometry x="520" y="360" width="30" height="30" as="geometry" />
        </mxCell>
        <mxCell id="0E739cw5OknVac1vhH8L-12" value="1" style="text;html=1;align=center;verticalAlign=middle;resizable=0;points=[];autosize=1;strokeColor=none;fillColor=none;" vertex="1" parent="1">
          <mxGeometry x="550" y="240" width="30" height="30" as="geometry" />
        </mxCell>
        <mxCell id="0E739cw5OknVac1vhH8L-13" value="1" style="text;html=1;align=center;verticalAlign=middle;resizable=0;points=[];autosize=1;strokeColor=none;fillColor=none;" vertex="1" parent="1">
          <mxGeometry x="395" y="200" width="30" height="30" as="geometry" />
        </mxCell>
        <mxCell id="0E739cw5OknVac1vhH8L-14" value="M" style="text;html=1;align=center;verticalAlign=middle;resizable=0;points=[];autosize=1;strokeColor=none;fillColor=none;" vertex="1" parent="1">
          <mxGeometry x="550" y="605" width="30" height="30" as="geometry" />
        </mxCell>
        <mxCell id="0E739cw5OknVac1vhH8L-15" value="M" style="text;html=1;align=center;verticalAlign=middle;resizable=0;points=[];autosize=1;strokeColor=none;fillColor=none;" vertex="1" parent="1">
          <mxGeometry x="35" y="510" width="30" height="30" as="geometry" />
        </mxCell>
        <mxCell id="0E739cw5OknVac1vhH8L-16" value="1" style="text;html=1;align=center;verticalAlign=middle;resizable=0;points=[];autosize=1;strokeColor=none;fillColor=none;" vertex="1" parent="1">
          <mxGeometry x="195" y="590" width="30" height="30" as="geometry" />
        </mxCell>
        <mxCell id="0E739cw5OknVac1vhH8L-17" value="M" style="text;html=1;align=center;verticalAlign=middle;resizable=0;points=[];autosize=1;strokeColor=none;fillColor=none;" vertex="1" parent="1">
          <mxGeometry x="120" y="725" width="30" height="30" as="geometry" />
        </mxCell>
        <mxCell id="0E739cw5OknVac1vhH8L-20" value="1" style="text;html=1;align=center;verticalAlign=middle;resizable=0;points=[];autosize=1;strokeColor=none;fillColor=none;" vertex="1" parent="1">
          <mxGeometry x="150" y="295" width="30" height="30" as="geometry" />
        </mxCell>
        <mxCell id="0E739cw5OknVac1vhH8L-21" value="M" style="text;html=1;align=center;verticalAlign=middle;resizable=0;points=[];autosize=1;strokeColor=none;fillColor=none;" vertex="1" parent="1">
          <mxGeometry x="250" y="560" width="30" height="30" as="geometry" />
        </mxCell>
      </root>
    </mxGraphModel>
  </diagram>
</mxfile>
